<mxfile host="app.diagrams.net" modified="2021-02-01T18:15:26.624Z" agent="5.0 (Windows NT 6.1; Win64; x64) AppleWebKit/537.36 (KHTML, like Gecko) Chrome/88.0.4324.104 Safari/537.36" etag="fi4itNZjn4a3iA3FUctz" version="14.2.3" type="github">
  <diagram id="prtHgNgQTEPvFCAcTncT" name="Page-1">
    <mxGraphModel dx="1422" dy="754" grid="1" gridSize="10" guides="1" tooltips="1" connect="1" arrows="1" fold="1" page="1" pageScale="1" pageWidth="827" pageHeight="1169" math="0" shadow="0">
      <root>
        <mxCell id="0" />
        <mxCell id="1" parent="0" />
        <mxCell id="8ayX-065Z4ratnzgLA0H-1" value="Управляющий" style="ellipse;whiteSpace=wrap;html=1;aspect=fixed;" vertex="1" parent="1">
          <mxGeometry x="360" y="80" width="90" height="90" as="geometry" />
        </mxCell>
        <mxCell id="8ayX-065Z4ratnzgLA0H-2" value="Повар" style="ellipse;whiteSpace=wrap;html=1;aspect=fixed;" vertex="1" parent="1">
          <mxGeometry x="540" y="80" width="90" height="90" as="geometry" />
        </mxCell>
        <mxCell id="8ayX-065Z4ratnzgLA0H-3" value="Официант" style="ellipse;whiteSpace=wrap;html=1;aspect=fixed;" vertex="1" parent="1">
          <mxGeometry x="360" y="250" width="90" height="90" as="geometry" />
        </mxCell>
        <mxCell id="8ayX-065Z4ratnzgLA0H-4" value="Уборщица" style="ellipse;whiteSpace=wrap;html=1;aspect=fixed;" vertex="1" parent="1">
          <mxGeometry x="180" y="80" width="90" height="90" as="geometry" />
        </mxCell>
        <mxCell id="8ayX-065Z4ratnzgLA0H-5" value="" style="endArrow=classic;html=1;exitX=0.5;exitY=1;exitDx=0;exitDy=0;entryX=0.5;entryY=0;entryDx=0;entryDy=0;" edge="1" parent="1" source="8ayX-065Z4ratnzgLA0H-1" target="8ayX-065Z4ratnzgLA0H-3">
          <mxGeometry width="50" height="50" relative="1" as="geometry">
            <mxPoint x="390" y="430" as="sourcePoint" />
            <mxPoint x="440" y="380" as="targetPoint" />
          </mxGeometry>
        </mxCell>
        <mxCell id="8ayX-065Z4ratnzgLA0H-6" value="" style="endArrow=classic;html=1;exitX=1;exitY=0.5;exitDx=0;exitDy=0;entryX=0;entryY=0.5;entryDx=0;entryDy=0;" edge="1" parent="1" source="8ayX-065Z4ratnzgLA0H-1" target="8ayX-065Z4ratnzgLA0H-2">
          <mxGeometry width="50" height="50" relative="1" as="geometry">
            <mxPoint x="390" y="430" as="sourcePoint" />
            <mxPoint x="440" y="380" as="targetPoint" />
          </mxGeometry>
        </mxCell>
        <mxCell id="8ayX-065Z4ratnzgLA0H-7" value="" style="endArrow=classic;html=1;exitX=0;exitY=0.5;exitDx=0;exitDy=0;" edge="1" parent="1" source="8ayX-065Z4ratnzgLA0H-1" target="8ayX-065Z4ratnzgLA0H-4">
          <mxGeometry width="50" height="50" relative="1" as="geometry">
            <mxPoint x="390" y="430" as="sourcePoint" />
            <mxPoint x="440" y="380" as="targetPoint" />
          </mxGeometry>
        </mxCell>
        <mxCell id="8ayX-065Z4ratnzgLA0H-8" value="" style="endArrow=classic;html=1;exitX=1;exitY=0.5;exitDx=0;exitDy=0;entryX=0.5;entryY=1;entryDx=0;entryDy=0;" edge="1" parent="1" source="8ayX-065Z4ratnzgLA0H-3" target="8ayX-065Z4ratnzgLA0H-2">
          <mxGeometry width="50" height="50" relative="1" as="geometry">
            <mxPoint x="390" y="430" as="sourcePoint" />
            <mxPoint x="690" y="340" as="targetPoint" />
            <Array as="points">
              <mxPoint x="585" y="295" />
            </Array>
          </mxGeometry>
        </mxCell>
        <mxCell id="8ayX-065Z4ratnzgLA0H-9" value="Управляющий - отвечает за все в целом&lt;br&gt;Официант - принимает заказы&lt;br&gt;Повар - готовит блюда&lt;br&gt;Уборщица - уборка столов, зала" style="text;html=1;strokeColor=none;fillColor=none;align=left;verticalAlign=top;whiteSpace=wrap;rounded=0;" vertex="1" parent="1">
          <mxGeometry x="180" y="370" width="250" height="80" as="geometry" />
        </mxCell>
      </root>
    </mxGraphModel>
  </diagram>
</mxfile>
